<svg xmlns="http://www.w3.org/2000/svg" viewBox="0 6.099999904632568 509.1499938964844 45.400001525878906" data-asc="0.825"><g fill="#ffc803"><g fill="#ffc803" transform="translate(0, 0)"><path d="M7.80 44.70Q0 44.70 0 35.50Q0 27.90 4.05 23.25Q7.45 19.25 11.85 19.25Q14.30 19.25 15.73 20.55Q17.15 21.85 17.15 24.30Q17.15 28.20 14.15 32.20Q11.05 36.35 7.85 36.35Q6.00 36.35 5.13 35.25Q4.25 34.15 4.25 32.60Q4.25 31.60 4.65 30.40Q5.20 28.95 5.80 28.95Q6.25 28.95 6.25 29.40Q6.25 29.65 5.80 30.70Q5.45 31.45 5.45 32.25Q5.45 33.30 6.13 33.92Q6.80 34.55 7.90 34.55Q10.85 34.55 13.45 30.80Q15.90 27.30 15.90 23.85Q15.90 22.05 15.02 21.07Q14.15 20.10 12.65 20.10Q9.10 20.10 5.55 25Q1.90 30.25 2.10 36.55Q2.20 39.35 3.63 41.30Q5.05 43.25 7.45 43.25Q14.20 43.25 24.70 25.30Q19.20 23.65 19.20 18.80Q19.20 15.55 20.95 12.92Q22.70 10.30 25.75 8.50Q29.90 6.10 33.85 6.10Q36.00 6.10 38.03 6.63Q40.05 7.15 41.40 8.27Q42.75 9.40 42.75 11.20Q42.75 11.80 42.48 12.35Q42.20 12.90 41.90 12.90Q41.95 12.90 41.45 12.57Q40.95 12.25 40.35 12.25Q36.10 12.25 28.70 24.90Q28.90 24.95 29.10 24.95Q29.30 24.95 29.50 24.95Q30.75 24.95 31.93 24.50Q33.10 24.05 33.88 23.25Q34.65 22.45 34.65 21.45Q34.65 21.05 34.48 20.63Q34.30 20.20 34.30 20.10Q34.30 19.70 34.70 19.70Q34.90 19.70 35.10 19.85Q36.25 20.70 36.25 21.95Q36.25 23.20 35.30 24.15Q34.35 25.10 32.88 25.63Q31.40 26.15 29.90 26.15Q29.05 26.15 28.20 26Q24.75 32.35 19.80 37.70Q13.20 44.70 7.80 44.70M25.55 24.05Q28.30 19.55 32.25 15.50Q37.00 10.60 39.90 10.60Q40.65 10.60 41.20 10.95Q41.15 10 40.30 9.23Q39.45 8.45 38.28 8Q37.10 7.55 36.05 7.50Q32.75 7.35 29.05 9Q25.90 10.40 23.88 13.22Q21.85 16.05 21.85 19.75Q21.85 23.35 25.55 24.05ZM39.55 41.35Q38.35 41.35 38.35 40Q38.90 37.20 40.60 33.70Q41.40 32 42.23 30.35Q43.05 28.70 43.85 27Q42 28.25 40.15 29.77Q38.30 31.30 36.55 33.20Q34.50 35.40 31.80 38.85Q29.85 41.30 29.55 41.30Q28.85 41.30 28.40 40.65Q27.95 40 27.95 39.55Q27.95 38.90 29.10 36.20Q29.45 35.35 29.82 34.52Q30.20 33.70 30.55 32.90L27.55 36.05Q27.45 36.15 26.95 36.65Q26.45 37.15 26.15 37.15Q25.90 37.15 25.90 36.80Q25.90 36.70 25.98 36.52Q26.05 36.35 26.30 36.10Q27.05 35.35 27.85 34.50Q28.65 33.65 29.50 32.55Q30.15 31.70 31.38 30.02Q32.60 28.35 34.40 25.80Q34.95 25.05 35.95 25.05Q36.95 25.05 36.95 26Q36.95 26.35 34.40 30.65Q33.10 32.95 32.33 34.40Q31.55 35.85 31.35 36.55Q32.45 35.35 33.98 33.85Q35.50 32.35 37.50 30.50Q43.65 24.80 45.60 24.80Q46.15 24.80 46.67 25.15Q47.20 25.50 47.20 26.05Q47.20 26.30 45.25 29.70Q43.35 33.15 43.15 33.80Q48.70 29.15 48.70 29.10Q53.40 25.45 55.45 25.45Q56.05 25.45 56.58 25.82Q57.10 26.20 57.10 26.70Q57.10 26.80 53.90 30.90Q50.60 35.05 50.20 37.70Q50 39.50 52.05 39.50Q53.30 39.50 55.55 37.90Q57.80 36.30 60.25 33.50Q60.55 33.15 60.90 32.83Q61.25 32.50 61.50 32.50Q61.80 32.50 61.80 32.75Q61.80 33.10 61.35 33.55Q60.05 35.10 58.28 36.75Q56.50 38.40 54.75 39.52Q53 40.65 51.65 40.65Q48.25 40.65 48.25 37.50Q48.25 36.40 48.85 34.92Q49.45 33.45 50.05 32.25Q51.50 29.45 53.20 27.30Q51.60 28.10 49.88 29.40Q48.15 30.70 46.30 32.45Q42 36.65 40.40 40.95Q40.15 41.35 39.55 41.35ZM56.40 50.70Q54.30 49.55 54.30 46.35Q54.30 42.90 59.95 34.55Q65.35 26.50 67.45 25.85Q67.65 25.80 67.80 25.77Q67.95 25.75 68.10 25.75Q68.95 25.75 68.95 27.60Q69.30 27.25 70.17 26.92Q71.05 26.60 71.97 26.40Q72.90 26.20 73.35 26.15Q75.40 26.05 76.78 27.13Q78.15 28.20 78.15 29.95Q78.15 34 73.30 37.80Q68.90 41.25 65.50 41.25Q63.25 41.25 62.40 41Q61.20 40.65 59.95 39.15Q59.40 39.60 58.75 40.67Q58.10 41.75 57.52 43.02Q56.95 44.30 56.57 45.55Q56.20 46.80 56.20 47.65Q56.20 48.50 56.52 49.08Q56.85 49.65 57.15 50.15Q57.15 50.20 57.17 50.23Q57.20 50.25 57.20 50.25Q57.20 50.50 56.92 50.67Q56.65 50.85 56.40 50.70M64.85 39.85Q67.65 39.85 71.30 37Q75.60 33.60 75.60 29.45Q75.60 27.55 73.25 27.55Q71.10 27.55 69.25 28.50Q68.75 28.70 67.63 29.80Q66.50 30.90 64.65 32.80Q60.70 36.90 60.70 38.05Q60.70 38.95 62.35 39.50Q63.45 39.85 64.85 39.85ZM80.70 41.90Q79.10 41.90 77.80 40.88Q76.50 39.85 76.50 38.15Q76.50 34.60 80.85 30.05Q85.30 25.45 88.80 25.45Q89.95 25.45 90.68 26.07Q91.40 26.70 91.40 27.60Q91.40 30.40 86.95 33.10Q83 35.50 80.30 35.50Q79.90 35.50 79.60 35.40Q78.85 36.75 78.85 38.25Q78.85 40.85 81.30 40.85Q83.80 40.85 87.75 37.50Q90.80 35.05 92.95 32.30Q93.40 31.70 93.75 31.70Q94.05 31.70 94.05 32Q94.05 32.30 93.65 32.85Q92.25 34.70 90.65 36.25Q89.05 37.80 87.20 39.10Q83.35 41.90 80.70 41.90M81 34.40Q82.90 34.40 85.95 32.50Q86.95 31.80 87.93 30.92Q88.90 30.05 89.53 29.15Q90.15 28.25 90.15 27.55Q90.15 26.90 89.10 26.90Q87.60 26.90 84.90 29.15Q83.60 30.25 82.40 31.55Q81.20 32.85 80.35 34.30Q80.65 34.40 81 34.40ZM101.20 41.50Q99.05 41.50 98.25 40.38Q97.45 39.25 97.45 37.35Q97.45 35.25 98.75 32.35Q99.25 31.20 99.80 30.27Q100.35 29.35 100.95 28.55Q100.75 28.60 100.60 28.60Q100.45 28.60 100.30 28.60Q99.10 28.60 98.30 26.90L94.60 31.70Q91.65 35.55 91 35.55Q90.75 35.55 90.75 35.35Q90.75 35.10 91 34.70Q91.15 34.40 91.60 33.90Q93.50 31.70 95.10 29.55Q96.70 27.40 97.75 25.35Q98.90 21 100.65 21Q101.80 21 101.80 22.05Q101.80 23 100.55 24.55Q99.35 26.10 99.35 26.15Q99.35 27.20 100.90 27.20Q101.80 27.20 102.90 26.55L104.20 25.75Q104.30 25.70 104.50 25.70Q105.10 25.70 105.55 26.20Q106 26.70 105.85 27.10L102.40 31.45Q99.20 35.55 99.20 38.05Q99.20 40.30 101.40 40.30Q102.90 40.30 104.63 39.40Q106.35 38.50 107.97 37.17Q109.60 35.85 110.70 34.60L111.90 33.20Q112 33.10 112.15 32.95Q112.30 32.80 112.40 32.80Q112.75 32.80 112.75 33.15Q112.75 33.25 112.65 33.50Q112.55 33.75 112.30 34.05L110.70 35.85Q109.55 37.15 107.88 38.48Q106.20 39.80 104.42 40.65Q102.65 41.50 101.20 41.50ZM121.75 24.05Q120.90 24.05 120.28 23.50Q119.65 22.95 119.65 22.25Q119.65 20.85 121.55 20.85Q122.25 20.85 122.95 21.32Q123.65 21.80 123.65 22.50Q123.65 23.10 123 23.57Q122.35 24.05 121.75 24.05M112.50 41.80Q111.40 41.80 110.67 41.08Q109.95 40.35 109.95 38.50Q109.95 37.45 110.42 36.08Q110.90 34.70 111.63 33.30Q112.35 31.90 113.05 30.80Q115.85 26.25 117.65 26.20Q118.10 26.20 118.75 26.57Q119.40 26.95 119.40 27.40Q119.40 27.40 115.60 32.30Q111.85 37.15 111.85 39.20Q111.85 40.80 113.10 40.80Q113.90 40.80 115.17 40.13Q116.45 39.45 117.85 38.40Q119.25 37.35 120.53 36.15Q121.80 34.95 122.60 33.95Q123.10 33.30 123.48 33.05Q123.85 32.80 123.95 32.80Q124.15 32.80 124.15 33.10Q124.15 33.35 123.58 34.10Q123 34.85 122 35.85Q120.80 37.05 119.35 38.45Q117.90 39.85 116.20 40.83Q114.50 41.80 112.50 41.80ZM125.35 41.50Q124.15 41.50 122.95 40.65Q121.75 39.80 121.60 38.65Q121.10 34.80 126.45 29.50Q131.75 24.20 136 24.20Q137.15 24.20 137.80 24.75Q138.15 25.10 138.32 25.70Q138.50 26.30 138.60 26.30Q138.80 26.30 138.95 26.23Q139.10 26.15 139.30 26.15Q139.90 26.15 140.35 26.60Q140.80 27.05 140.85 27.40Q140.90 27.50 137.65 32.35Q134.40 37.10 134.70 38.80Q134.95 39.95 135.80 39.95Q138.40 39.95 145.30 31.35Q145.45 31.15 145.60 31.15Q145.85 31.15 145.85 31.50Q145.85 31.90 145.40 32.50Q139.05 41.05 135.65 41.05Q135.20 41.05 134.80 40.90Q132.60 40.05 132.60 37.60Q132.60 36.75 132.80 35.90L129.70 38.90Q128.30 40.30 127.17 40.90Q126.05 41.50 125.35 41.50M124.90 40.40Q127.80 40.40 132.80 34.05L138.10 26.75Q137.70 26.05 136.80 26.05Q133.75 26.05 128.55 30.95Q123.15 35.95 123.70 39.20Q123.95 40.40 124.90 40.40ZM146.40 41.35Q144.95 41.35 143.70 40.63Q142.45 39.90 142.45 38.20Q142.45 35.85 144.13 32.60Q145.80 29.35 147.95 25.85Q153.80 16.35 156.25 16.35Q156.75 16.35 157.28 16.72Q157.80 17.10 157.85 17.55L154.35 22.25Q152.30 25 150.65 27.32Q149 29.65 147.80 31.50Q147.20 32.45 146.45 33.65Q145.70 34.85 145.13 36.13Q144.55 37.40 144.55 38.70Q144.55 39.30 144.90 39.77Q145.25 40.25 146.15 40.25Q147.75 40.25 150.35 38.52Q152.95 36.80 155.50 33.75Q155.75 33.45 156.05 33.20Q156.35 32.95 156.55 32.95Q156.80 32.95 156.80 33.25Q156.80 33.40 156.47 33.83Q156.15 34.25 155.95 34.50L154.75 35.85Q153.75 36.95 152.38 38.25Q151 39.55 149.47 40.45Q147.95 41.35 146.40 41.35ZM196.55 46.85Q194.55 46.85 193.13 45.25Q191.70 43.65 190.65 41.15Q189.60 38.65 188.80 36Q186.95 29.95 187.25 28.80Q184.30 32.75 182.15 35.38Q180 38 178.65 39.30Q172.75 45 166.70 45Q164.90 45 163.72 44.25Q162.55 43.50 162.55 41.75Q162.55 40.65 163.05 39.38Q163.55 38.10 164.30 36.95Q165.05 35.80 165.80 35.05Q167.45 33.40 168.55 33.40Q168.75 33.40 168.75 33.50Q168.75 33.75 168 34.35Q166.25 35.75 165.10 37.58Q163.95 39.40 163.95 40.90Q163.95 43.70 167.90 43.55Q174.35 43.30 185.80 27.95Q186.45 27.10 186.90 26.75L186.10 26.45Q185.45 26.70 185.05 26.70Q184 26.70 184 25.85Q184 24.70 185.55 24.35Q186.50 24.10 188 25.20Q189.95 23 191.78 21Q193.60 19 195.10 17.72Q196.60 16.45 197.50 16.45Q198.70 16.45 198.70 17.55Q198.70 18 198.48 18.47Q198.25 18.95 197.95 18.95Q197.65 19 197.65 18.65Q197.65 18.40 197.95 18.05L197.95 17.85Q197.95 17.55 197.75 17.40Q196.45 16.55 189.75 25.85Q190.30 25.90 190.93 25.92Q191.55 25.95 192.25 25.95Q203.85 25.95 206.75 19.95Q207.35 18.65 207.35 17.55Q207.35 15.35 205.30 13.70Q203.45 12.20 200.43 11.67Q197.40 11.15 194.40 11.15Q187.75 11.15 180.25 14.80Q171.15 19.25 171.15 25.25Q171.15 27.20 173.70 27.20Q176.05 27.20 179 25.30Q181.55 23.60 182.50 21.85Q182.85 21.20 183.15 21.20Q183.50 21.20 183.35 21.60Q182.40 24.40 179.10 26.40Q175.90 28.35 172.50 28.35Q168.45 28.35 168.75 25.75Q169.50 19.20 176.80 14.60Q184.05 10.05 194.30 10.05Q198.20 10.05 201.88 10.75Q205.55 11.45 207.85 13.35Q210.25 15.35 210.25 18.05Q210.25 19.20 209.70 20.55Q208.85 22.50 207.10 23.88Q205.35 25.25 203.05 26.10Q200.75 26.95 198.20 27.35Q195.65 27.75 193.25 27.75Q191.95 27.75 190.78 27.65Q189.60 27.55 188.60 27.35Q188.90 28.30 189.65 30.80Q190.40 33.30 191.55 37.30Q191.90 38.40 192.53 39.70Q193.15 41 193.95 42.15Q194.75 43.30 195.68 44.05Q196.60 44.80 197.55 44.80Q199.65 44.80 201.05 40.55Q201.30 39.55 201.60 39.55Q201.85 39.55 202.05 40.50Q202.10 40.65 202.10 40.90Q202.10 42.20 200.70 44.10Q198.85 46.85 196.55 46.85ZM213.30 24.05Q212.45 24.05 211.82 23.50Q211.20 22.95 211.20 22.25Q211.20 20.85 213.10 20.85Q213.80 20.85 214.50 21.32Q215.20 21.80 215.20 22.50Q215.20 23.10 214.55 23.57Q213.90 24.05 213.30 24.05M204.05 41.80Q202.95 41.80 202.22 41.08Q201.50 40.35 201.50 38.50Q201.50 37.45 201.97 36.08Q202.45 34.70 203.18 33.30Q203.90 31.90 204.60 30.80Q207.40 26.25 209.20 26.20Q209.65 26.20 210.30 26.57Q210.95 26.95 210.95 27.40Q210.95 27.40 207.15 32.30Q203.40 37.15 203.40 39.20Q203.40 40.80 204.65 40.80Q205.45 40.80 206.72 40.13Q208 39.45 209.40 38.40Q210.80 37.35 212.07 36.15Q213.35 34.95 214.15 33.95Q214.65 33.30 215.03 33.05Q215.40 32.80 215.50 32.80Q215.70 32.80 215.70 33.10Q215.70 33.35 215.13 34.10Q214.55 34.85 213.55 35.85Q212.35 37.05 210.90 38.45Q209.45 39.85 207.75 40.83Q206.05 41.80 204.05 41.80ZM216.90 41.50Q215.40 41.50 214.35 40.67Q213.30 39.85 213.15 38.65Q212.95 37.05 213.63 35.42Q214.30 33.80 215.48 32.30Q216.65 30.80 218 29.50Q223.30 24.20 227.55 24.20Q229 24.20 229.50 24.95Q229.70 25.20 229.95 26.10Q235.55 17 237.75 17Q238.25 17 238.80 17.25Q239.35 17.50 239.35 17.90Q239.35 18.15 239.10 18.55Q237.60 20.40 236.10 22.22Q234.60 24.05 233.15 25.90Q230.70 29 229.20 31.30Q227.70 33.60 227.05 35.20Q226.85 35.70 226.68 36.42Q226.50 37.15 226.50 37.90Q226.50 38.85 226.90 39.55Q227.30 40.25 228.35 40.25Q230 40.25 232.40 38.65Q234.80 37.05 238 33.40Q238.20 33.20 238.38 33.05Q238.55 32.90 238.75 32.85Q239.20 32.75 239.20 33.05Q239.20 33.20 238.90 33.60Q237.35 35.45 235.45 37.25Q233.55 39.05 231.58 40.23Q229.60 41.40 227.90 41.40Q226.20 41.40 225.50 40.25Q224.80 39.10 224.80 37.65Q224.80 36.15 225.35 34.90L221.30 38.95Q219.95 40.30 218.83 40.90Q217.70 41.50 216.90 41.50M216.45 40.40Q218.60 40.40 223.60 34.50Q223.85 34.20 225.35 32.27Q226.85 30.35 229.60 26.65Q229.25 26.05 228.40 26.05Q225.30 26.05 220.10 30.95Q215.20 35.50 215.20 38.60Q215.20 40.40 216.45 40.40ZM236.35 51.50Q234.85 51.50 233.80 50.25Q232.75 49 232.70 47.55Q232.85 46.95 233.15 46.95Q233.45 46.95 233.50 47.73Q233.55 48.50 234.30 49.25Q235.05 50 235.75 50Q238.65 50 241.85 46.25Q243 44.90 244.22 43.08Q245.45 41.25 246.60 38.95L249.10 34L245.35 37.80Q243.60 39.55 242.33 40.40Q241.05 41.25 240.35 41.25Q239.15 41.25 237.95 40.38Q236.75 39.50 236.60 38.35Q236.10 34.50 241.45 29.20Q246.80 23.95 251 23.95Q252.15 23.95 252.80 24.50Q253.15 24.80 253.33 25.40Q253.50 26 253.60 26Q253.80 26 253.95 25.92Q254.10 25.85 254.30 25.85Q254.95 25.85 255.38 26.30Q255.80 26.75 255.65 27.20Q255.60 27.65 254.20 29.90Q253.30 31.40 252.15 33.52Q251 35.65 249.72 37.92Q248.45 40.20 247.25 42.17Q246.05 44.15 245.10 45.40Q240.50 51.50 236.35 51.50M239.90 40.10Q242.80 40.10 247.80 33.75L253.10 26.45Q252.80 25.75 251.85 25.75Q248.75 25.75 243.55 30.65Q238.15 35.75 238.70 38.90Q238.95 40.10 239.90 40.10ZM257.95 41.90Q256.35 41.90 255.05 40.88Q253.75 39.85 253.75 38.15Q253.75 34.60 258.10 30.05Q262.55 25.45 266.05 25.45Q267.20 25.45 267.93 26.07Q268.65 26.70 268.65 27.60Q268.65 30.40 264.20 33.10Q260.25 35.50 257.55 35.50Q257.15 35.50 256.85 35.40Q256.10 36.75 256.10 38.25Q256.10 40.85 258.55 40.85Q261.05 40.85 265 37.50Q268.05 35.05 270.20 32.30Q270.65 31.70 271 31.70Q271.30 31.70 271.30 32Q271.30 32.30 270.90 32.85Q269.50 34.70 267.90 36.25Q266.30 37.80 264.45 39.10Q260.60 41.90 257.95 41.90M258.25 34.40Q260.15 34.40 263.20 32.50Q264.20 31.80 265.18 30.92Q266.15 30.05 266.77 29.15Q267.40 28.25 267.40 27.55Q267.40 26.90 266.35 26.90Q264.85 26.90 262.15 29.15Q260.85 30.25 259.65 31.55Q258.45 32.85 257.60 34.30Q257.90 34.40 258.25 34.40ZM270.65 41.30Q268 41.30 268 37.30Q268 34.15 273.80 25.80Q279.75 17.25 282.85 17.25Q283.45 17.25 284 17.63Q284.55 18 284.55 18.60Q284.55 18.55 280.90 22.50Q278.80 24.80 277.10 26.80Q275.40 28.80 274.10 30.55Q270.45 35.55 270.45 37.85Q270.45 38.50 270.82 39.17Q271.20 39.85 271.85 39.85Q273 39.85 274.30 38.95Q275.60 38.05 276.80 36.70Q278 35.35 278.85 33.92Q279.70 32.50 280 31.40Q279.65 30.35 279.65 28.80Q279.65 25.05 282.20 25.45Q282.70 25.50 282.88 25.95Q283.05 26.40 283.05 27Q283.05 28.25 282.68 29.50Q282.30 30.75 282.10 31.60Q282.30 32.75 283.02 33.92Q283.75 35.10 284.85 35.10Q285.95 35.10 287.40 33.50Q287.70 33.15 288 33.15Q288.25 33.15 288.30 33.50Q288.30 33.80 287.90 34.35Q286.35 36.20 284.65 36.20Q282.20 36.20 280.70 32.60Q279.75 34.80 278.10 36.80Q276.45 38.80 274.52 40.05Q272.60 41.30 270.65 41.30ZM289.85 41.50Q288.65 41.50 287.45 40.65Q286.25 39.80 286.10 38.65Q285.60 34.80 290.95 29.50Q296.25 24.20 300.50 24.20Q301.65 24.20 302.30 24.75Q302.65 25.10 302.82 25.70Q303 26.30 303.10 26.30Q303.30 26.30 303.45 26.23Q303.60 26.15 303.80 26.15Q304.40 26.15 304.85 26.60Q305.30 27.05 305.35 27.40Q305.40 27.50 302.15 32.35Q298.90 37.10 299.20 38.80Q299.45 39.95 300.30 39.95Q302.90 39.95 309.80 31.35Q309.95 31.15 310.10 31.15Q310.35 31.15 310.35 31.50Q310.35 31.90 309.90 32.50Q303.55 41.05 300.15 41.05Q299.70 41.05 299.30 40.90Q297.10 40.05 297.10 37.60Q297.10 36.75 297.30 35.90L294.20 38.90Q292.80 40.30 291.68 40.90Q290.55 41.50 289.85 41.50M289.40 40.40Q292.30 40.40 297.30 34.05L302.60 26.75Q302.20 26.05 301.30 26.05Q298.25 26.05 293.05 30.95Q287.65 35.95 288.20 39.20Q288.45 40.40 289.40 40.40ZM310.90 41.90Q309.30 41.90 308 40.88Q306.70 39.85 306.70 38.15Q306.70 34.60 311.05 30.05Q315.50 25.45 319 25.45Q320.20 25.45 320.90 26.07Q321.60 26.70 321.60 27.60Q321.60 28.85 321 29.90Q320.30 31.20 319 31.20Q317.70 31.20 317.70 30.40Q317.70 29.85 318.35 28.75Q319.05 27.60 319.05 27.55Q319.05 27.45 318.90 27.45Q317.50 27.60 315 29.50Q313.90 30.35 313.08 31.10Q312.25 31.85 311.75 32.55L309.80 35.40Q309.50 35.85 309.18 36.95Q308.85 38.05 308.85 38.60Q308.85 39.60 309.53 40.25Q310.20 40.90 311.25 40.90Q313.75 40.90 317.85 37.65Q321.15 35.05 323.15 32.40Q323.40 32.10 323.75 32.10Q324.10 32.10 324.10 32.30Q324.10 32.45 323.85 32.80Q321.10 36.45 317.40 39.10Q313.45 41.90 310.90 41.90ZM331.50 41.85Q329.85 41.85 328.57 40.90Q327.30 39.95 326.38 38.50Q325.45 37.05 324.80 35.60Q324.45 36.05 324.07 36.75Q323.70 37.45 323.20 38.40L321.65 41.50Q319.85 40.80 319.85 39.60Q319.85 37.45 326.40 27.65Q332.75 18.15 335.15 16.45Q335.40 16.30 335.95 16.30Q337.50 16.30 337.50 17.10Q337.50 17.25 336.80 18.17Q336.10 19.10 335.05 20.40Q334 21.70 332.93 23.02Q331.85 24.35 331.05 25.32Q330.25 26.30 330.15 26.55Q334.70 24.20 337.40 24.20Q338.45 24.20 339.32 24.80Q340.20 25.40 340.70 26.25Q341.20 27.10 341.10 27.90Q340.70 30.75 337.10 32.60Q334.20 34.15 331.80 34.15Q329.20 34.15 328.20 33.50Q327.90 33.45 327.73 33.63Q327.55 33.80 327.65 34.15Q329.05 40.35 332.30 40.35Q333.90 40.35 336.57 38.50Q339.25 36.65 342.25 33.10Q342.60 32.75 342.90 32.75Q343.15 32.75 343.15 33.05Q343.15 33.30 342.80 33.80Q341.35 35.55 339.43 37.42Q337.50 39.30 335.45 40.58Q333.40 41.85 331.50 41.85M328.60 32.85Q330.85 32.85 334.50 31Q338.70 28.90 338.70 26.55Q338.70 26.15 338.25 25.75Q337.80 25.35 337.30 25.35Q334.60 25.35 331 27.45Q327.05 29.85 326.20 32.70Q326.75 32.70 327.63 32.77Q328.50 32.85 328.60 32.85ZM372.20 44.15Q363.85 44.55 360.20 40Q355.80 43.40 353.75 43.40Q352.65 43.40 352.12 42.33Q351.60 41.25 351.60 40Q351.60 37.60 353.45 33.10Q355.65 28 357.50 28Q358.45 28 358.95 31Q359.80 35.50 360.50 37.20Q362.15 35.45 364.62 32.45Q367.10 29.45 370.35 25.20Q378.45 14.55 381.10 13.55Q382.00 13.20 382.90 13.20Q383.90 13.20 384.52 13.63Q385.15 14.05 385.15 14.60Q385.15 15.45 383.70 15.60Q382.65 16.15 381.12 17.50Q379.60 18.85 377.92 20.57Q376.25 22.30 374.80 23.97Q373.35 25.65 372.45 26.85Q367.10 34.30 361.75 38.75L361.45 39Q363.05 41.35 365.30 42.25Q367.55 43.15 370.30 43.15Q374.85 43.15 378.97 41.77Q383.10 40.40 386.42 37.67Q389.75 34.95 391.90 31Q394.25 26.70 394.25 22.80Q394.25 20.15 393.10 17.77Q391.95 15.40 390.02 13.70Q388.10 12 385.75 11.50Q383.00 10.90 380.00 10.90Q372.30 10.90 365.80 14.45Q358.95 18.20 358.95 22.85Q358.95 24.10 359.70 25Q360.30 25.70 360.55 25.80L360.25 25.80Q358.85 25.55 357.85 24.40Q356.85 23.25 356.85 21.85Q356.85 19.25 358.47 17.07Q360.10 14.90 363.20 13.10Q369.40 9.55 377.85 9.55Q379.75 9.55 381.65 9.75Q383.55 9.95 385.40 10.35Q388.65 11.05 391.30 13Q393.95 14.95 395.55 17.75Q397.15 20.55 397.15 23.80Q397.15 27.55 394.95 31.55Q392.75 35.60 389.27 38.33Q385.80 41.05 381.45 42.48Q377.10 43.90 372.20 44.15M354.00 42.50Q356.15 41.55 359.20 38.55Q357.75 36.15 357.30 34.50Q357.00 33.40 356.85 31.15Q353.40 36.10 353.40 39.80Q353.40 41.35 354.00 42.50ZM398.05 51.50Q396.45 51.50 395.25 50.15Q394.05 48.75 394.10 47.05Q394.70 47.80 395.70 48.80Q397 50.05 398.25 50.05Q401.10 50.05 404.40 45.50Q405.55 43.90 406.77 41.77Q408 39.65 409.10 37.05L411 32.45L403.65 38.20Q400.25 40.85 398.20 40.85Q397.10 40.85 396.45 40.05Q395.80 39.25 395.80 38.40Q395.80 36.25 399.50 31.35Q403.20 26.40 405.05 26.40Q406.60 26.40 406.60 27.55Q406.60 28 402.15 32.75Q397.75 37.45 397.75 39.10Q397.75 39.75 398.60 39.75Q400.20 39.75 405.55 35.60Q407.75 33.85 409.45 32.40Q411.15 30.95 412.30 29.80Q412.70 29.30 413.10 28.82Q413.50 28.35 413.85 27.85Q414.80 26.75 415.75 26.75Q417.10 26.75 417.10 27.85Q417.10 28.05 415 31.15Q413.90 32.85 413.25 33.77Q412.60 34.70 412.50 34.95Q410.95 37.95 407.75 43.70Q402.90 51.50 398.05 51.50ZM428.15 41.35Q426.80 41.35 426.25 40.58Q425.70 39.80 425.70 38.65Q425.70 35.75 427.70 32.45L430.90 27.25Q427.50 29.75 424.15 33.50Q423.25 34.50 422.13 35.85Q421 37.20 419.65 38.95Q417.85 41.30 417.50 41.30Q416.80 41.30 416.35 40.67Q415.90 40.05 415.90 39.55Q415.90 39.15 416.15 38.08Q416.40 37 416.75 36.20Q417.10 35.35 417.47 34.52Q417.85 33.70 418.20 32.90L415.20 36.05Q415.10 36.15 414.60 36.65Q414.10 37.15 413.80 37.15Q413.55 37.15 413.55 36.80Q413.55 36.70 413.63 36.52Q413.70 36.35 413.95 36.10Q414.70 35.35 415.50 34.50Q416.30 33.65 417.15 32.55Q417.60 32 418.50 30.88Q419.40 29.75 420.47 28.45Q421.55 27.15 422.50 26.05Q422.75 25.70 423.05 25.57Q423.35 25.45 423.45 25.45Q424.80 25.45 424.80 26.50Q424.80 26.80 424.65 27.10Q420.15 33.30 419.25 36.55Q425.05 30.75 428.57 27.82Q432.10 24.90 433.60 24.90Q434.40 24.90 434.82 25.15Q435.25 25.40 435.25 26.10Q435.25 26.35 435.20 26.50Q435.05 26.85 433.15 29.30Q432 30.70 431.13 31.85Q430.25 33 429.70 33.85Q428.80 35.25 428.35 36.48Q427.90 37.70 427.90 38.55Q427.90 38.90 428 39.40Q428.10 39.90 428.60 39.90Q429.75 39.90 432.20 37.90Q433.35 36.90 434.35 35.88Q435.35 34.85 436.25 33.85Q436.45 33.65 436.90 33.08Q437.35 32.50 437.45 32.50Q437.65 32.50 437.65 32.90Q437.65 33.10 437.42 33.58Q437.20 34.05 436.95 34.30Q436.40 34.95 435.32 36.10Q434.25 37.25 432.92 38.45Q431.60 39.65 430.35 40.50Q429.10 41.35 428.15 41.35ZM438.90 41.50Q437.70 41.50 436.50 40.65Q435.30 39.80 435.15 38.65Q434.65 34.80 440.00 29.50Q445.30 24.20 449.55 24.20Q450.70 24.20 451.35 24.75Q451.70 25.10 451.87 25.70Q452.05 26.30 452.15 26.30Q452.35 26.30 452.50 26.23Q452.65 26.15 452.85 26.15Q453.45 26.15 453.90 26.60Q454.35 27.05 454.40 27.40Q454.45 27.50 451.20 32.35Q447.95 37.10 448.25 38.80Q448.50 39.95 449.35 39.95Q451.95 39.95 458.85 31.35Q459.00 31.15 459.15 31.15Q459.40 31.15 459.40 31.50Q459.40 31.90 458.95 32.50Q452.60 41.05 449.20 41.05Q448.75 41.05 448.35 40.90Q446.15 40.05 446.15 37.60Q446.15 36.75 446.35 35.90L443.25 38.90Q441.85 40.30 440.72 40.90Q439.60 41.50 438.90 41.50M438.45 40.40Q441.35 40.40 446.35 34.05L451.65 26.75Q451.25 26.05 450.35 26.05Q447.30 26.05 442.10 30.95Q436.70 35.95 437.25 39.20Q437.50 40.40 438.45 40.40ZM461.90 41.35Q459.55 41.35 458.42 39.80Q457.30 38.25 456.60 35.50Q455.70 36.40 455.35 36.40Q455.10 36.40 455.10 36Q455.10 35.70 455.35 35.45Q455.35 35.45 456.63 33.90Q457.90 32.35 460.95 29.55L467.25 23.65Q468.55 22.40 469.32 21.75Q470.10 21.10 470.45 21.10Q472.05 21.10 472.05 22.30Q472.05 22.90 471.40 23.70Q470.90 24.30 470.67 24.63Q470.45 24.95 470.40 25Q469.50 26.55 468.75 30.55Q468.20 33.50 467.80 35.40Q467.40 37.30 467.15 38.15Q469.25 38.10 471.30 36.85Q473.35 35.60 475.70 32.75Q475.80 32.65 476 32.45Q476.20 32.25 476.40 32.25Q476.70 32.25 476.70 32.50Q476.70 32.75 476.55 33Q476.40 33.25 476.25 33.45Q474.70 35.30 473.35 36.48Q472 37.65 470.50 38.33Q469 39 466.95 39.45L465.35 40.50Q464.70 40.95 463.80 41.15Q462.90 41.35 461.90 41.35M462.50 38.80Q463.65 38.80 464.40 38.25Q464.95 37.95 465.47 36.58Q466 35.20 466.50 33.15Q466.90 31.40 467.13 29.73Q467.35 28.05 467.55 26.50L467.75 24.80Q466.60 25.65 464.85 27.25Q463.10 28.85 461.40 30.60Q459.70 32.35 459.20 33.17Q458.70 34 458.65 34.40Q458.45 36.40 459.63 37.60Q460.80 38.80 462.50 38.80ZM477.20 41.55Q475.60 41.55 474.67 40.77Q473.75 40 473.75 38Q473.75 36.85 474.45 35.08Q475.15 33.30 476.20 31.25Q477.25 29.20 478.30 27.20Q477.65 27.35 477.15 27.35Q475.65 27.35 475.65 26.20Q475.65 25.65 476.07 25.35Q476.50 25.05 476.85 25Q476.85 25 476.97 25Q477.10 25 477.30 24.95L480.20 24.95Q481.10 23.80 482.05 22.50Q483.40 20.80 484.20 20.50L484.35 20.50Q484.70 20.50 485.35 20.85Q486.15 21.30 486.15 21.75Q486.15 22.40 483.75 25.10Q484.20 25.15 485.05 25.15Q485.90 25.15 487.15 25.15Q487.75 25.15 488.87 25.15Q490.00 25.15 491.22 25.13Q492.45 25.10 493.35 25.07Q494.25 25.05 494.35 25.05Q494.50 25.10 494.50 25.20Q494.50 25.65 488.60 26.40Q485.25 26.85 483.47 27.10Q481.70 27.35 481.55 27.40Q480.85 28 479.85 29.45Q478.85 30.90 477.85 32.70Q476.85 34.50 476.17 36.13Q475.50 37.75 475.50 38.65Q475.50 39.45 476.10 39.98Q476.70 40.50 478.05 40.50Q478.95 40.50 480.20 40.10Q481.45 39.70 482.57 39.17Q483.70 38.65 484.20 38.35Q485.50 37.55 487.07 36.23Q488.65 34.90 490.20 33.20Q490.90 32.50 491.15 32.50Q491.30 32.50 491.30 32.70Q491.30 33.10 490.55 34Q489.35 35.45 487.87 36.77Q486.40 38.10 484.60 39.20Q482.55 40.45 480.67 41Q478.80 41.55 477.20 41.55ZM490.10 51.50Q488.50 51.50 487.30 50.15Q486.10 48.75 486.15 47.05Q486.75 47.80 487.75 48.80Q489.05 50.05 490.30 50.05Q493.15 50.05 496.45 45.50Q497.60 43.90 498.82 41.77Q500.05 39.65 501.15 37.05L503.05 32.45L495.70 38.20Q492.30 40.85 490.25 40.85Q489.15 40.85 488.50 40.05Q487.85 39.25 487.85 38.40Q487.85 36.25 491.55 31.35Q495.25 26.40 497.10 26.40Q498.65 26.40 498.65 27.55Q498.65 28 494.20 32.75Q489.80 37.45 489.80 39.10Q489.80 39.75 490.65 39.75Q492.25 39.75 497.60 35.60Q499.80 33.85 501.50 32.40Q503.20 30.95 504.35 29.80Q504.75 29.30 505.15 28.82Q505.55 28.35 505.90 27.85Q506.85 26.75 507.80 26.75Q509.15 26.75 509.15 27.85Q509.15 28.05 507.05 31.15Q505.95 32.85 505.30 33.77Q504.65 34.70 504.55 34.95Q503 37.95 499.80 43.70Q494.95 51.50 490.10 51.50Z"/></g><g fill="#ffc803" transform="translate(0, 71.25)"><path d=""/></g></g></svg>